<?xml version="1.0" standalone="no"?>
<!DOCTYPE svg PUBLIC "-//W3C//DTD SVG 20010904//EN"
 "http://www.w3.org/TR/2001/REC-SVG-20010904/DTD/svg10.dtd">
<svg version="1.0" xmlns="http://www.w3.org/2000/svg"
 width="40px" height="40px" viewBox="0 0 1284.000000 1100.000000"
 preserveAspectRatio="xMidYMid meet">

<g transform="translate(0.000000,1100.000000) scale(0.100000,-0.100000)"
fill="#000000" stroke="none">
<path d="M2788 8873 c-482 -675 -901 -1268 -933 -1316 -31 -48 -88 -147 -125
-220 -456 -878 -545 -2000 -239 -3002 73 -236 213 -548 342 -758 54 -87 1788
-2529 1821 -2564 12 -13 15 -9 1134 1561 730 1025 729 1024 842 1251 201 405
323 857 371 1365 15 160 15 559 0 720 -38 403 -137 822 -272 1145 -48 116
-174 371 -188 379 -18 11 -371 -507 -371 -544 0 -8 20 -64 45 -123 304 -735
310 -1659 15 -2397 -60 -150 -105 -245 -166 -347 -54 -91 -89 -141 -385 -558
-157 -221 -1010 -1419 -1014 -1423 -3 -4 -1290 1804 -1353 1901 -61 93 -158
282 -202 392 -166 414 -240 838 -227 1305 10 379 71 706 192 1037 51 137 171
380 244 491 34 51 350 498 703 993 l641 900 31 -43 c17 -24 213 -299 435 -611
222 -312 407 -567 410 -567 8 1 365 505 364 515 0 3 -277 394 -614 867 -338
474 -617 865 -620 870 -3 5 -400 -544 -881 -1219z"/>
<path d="M8735 9482 c-677 -950 -967 -1356 -1147 -1608 -252 -351 -376 -568
-491 -859 -118 -299 -189 -579 -238 -940 -29 -214 -37 -677 -15 -905 38 -397
123 -761 257 -1099 61 -152 199 -426 209 -414 30 33 272 385 316 458 l55 92
-31 68 c-172 383 -275 945 -255 1385 28 610 187 1135 470 1553 45 67 358 510
697 984 l615 862 654 -917 c359 -504 678 -955 707 -1002 224 -354 371 -824
413 -1319 15 -175 7 -537 -16 -701 -60 -446 -199 -849 -402 -1167 -76 -121
-1346 -1902 -1355 -1903 -4 0 -202 272 -439 605 -237 333 -435 605 -439 603
-5 -2 -89 -117 -189 -257 l-180 -254 56 -81 c110 -157 1175 -1651 1183 -1659
7 -8 1670 2315 1806 2524 125 190 251 454 339 709 295 860 282 1869 -37 2720
-64 171 -157 367 -246 517 -51 86 -1807 2567 -1851 2615 -3 4 -204 -270 -446
-610z"/>
<path d="M6050 9577 c-201 -281 -588 -825 -860 -1207 -564 -790 -608 -856
-701 -1035 -503 -967 -554 -2256 -132 -3290 43 -106 166 -362 183 -378 11 -13
275 360 351 497 l27 48 -39 90 c-163 375 -243 785 -243 1248 0 350 41 641 134
947 109 360 214 558 531 1000 68 95 347 485 619 867 272 383 497 696 500 696
3 0 201 -275 440 -611 l434 -610 21 27 c150 202 344 482 340 491 -6 18 -1225
1728 -1233 1730 -4 2 -171 -228 -372 -510z"/>
<path d="M8153 7252 c-72 -103 -154 -226 -182 -273 l-51 -87 34 -73 c109 -240
198 -582 237 -914 17 -140 17 -576 0 -710 -34 -271 -85 -501 -161 -720 -50
-144 -187 -429 -261 -542 -74 -112 -1343 -1893 -1349 -1893 -3 0 -200 275
-439 611 -239 335 -437 606 -441 602 -10 -12 -324 -454 -344 -484 l-17 -27
616 -863 c338 -475 620 -864 625 -864 5 0 208 279 452 620 243 341 637 894
877 1230 239 335 457 645 484 689 661 1065 716 2603 136 3748 -39 76 -73 138
-77 138 -4 -1 -66 -85 -139 -188z"/>
</g>
</svg>
